<?xml version="1.0" encoding="utf-8"?>
<!-- Generator: Adobe Illustrator 15.0.0, SVG Export Plug-In . SVG Version: 6.00 Build 0)  -->
<!DOCTYPE svg PUBLIC "-//W3C//DTD SVG 1.1//EN" "http://www.w3.org/Graphics/SVG/1.1/DTD/svg11.dtd">
<svg version="1.1"
	 id="svg2" xmlns:sodipodi="http://sodipodi.sourceforge.net/DTD/sodipodi-0.dtd" xmlns:inkscape="http://www.inkscape.org/namespaces/inkscape" xmlns:rdf="http://www.w3.org/1999/02/22-rdf-syntax-ns#" xmlns:cc="http://creativecommons.org/ns#" xmlns:dc="http://purl.org/dc/elements/1.1/" xmlns:svg="http://www.w3.org/2000/svg" sodipodi:docname="KAMUOLYS.svg" inkscape:version="0.48.3.1 r9886"
	 xmlns="http://www.w3.org/2000/svg" xmlns:xlink="http://www.w3.org/1999/xlink" x="0px" y="0px" width="389.959px"
	 height="434.875px" viewBox="0 0 389.959 434.875" enable-background="new 0 0 389.959 434.875" xml:space="preserve">
<sodipodi:namedview  fit-margin-left="0" fit-margin-top="0" inkscape:zoom="0.25" bordercolor="#666666" showgrid="false" inkscape:cy="437.66327" inkscape:cx="-13.019571" pagecolor="#ffffff" borderopacity="1.0" inkscape:window-maximized="1" inkscape:window-y="-3" inkscape:window-x="-3" inkscape:document-units="px" inkscape:pageopacity="0.0" inkscape:current-layer="g15383" inkscape:pageshadow="2" inkscape:window-height="845" inkscape:window-width="1440" id="base" fit-margin-right="0" fit-margin-bottom="0">
	</sodipodi:namedview>
<g id="g11208" transform="translate(624.74468,1466.671)" inkscape:label="dodec:x0.00:x0.00:x0.00:x0.00:x0.00:x0.00">
</g>
<g>
	
		<radialGradient id="path14995_1_" cx="-143.3203" cy="-4389.3677" r="215.7142" gradientTransform="matrix(0.6097 0 0 -0.6188 309.2311 -2613.8481)" gradientUnits="userSpaceOnUse">
		<stop  offset="0" style="stop-color:#FFFFFF"/>
		<stop  offset="1" style="stop-color:#333333"/>
	</radialGradient>
	<path id="path14995" inkscape:connector-curvature="0" fill="url(#path14995_1_)" d="M389.903,209.889
		c0,109.268-87.269,197.847-194.921,197.847c-107.652,0-194.921-88.579-194.921-197.847S87.331,12.041,194.982,12.041
		C302.635,12.041,389.903,100.621,389.903,209.889L389.903,209.889z"/>
	<path id="path13980" inkscape:connector-curvature="0" d="M175.264,145.637c-7.511,1.137-10.403,9.847-15.594,14.531
		c-10.729,14.158-21.221,28.634-30.438,43.844c-2.681,11.691,9.405,18.89,14.531,27.781c9.132,12.959,16.611,27.742,29.813,36.906
		c19.541,1.352,36.674-10.432,55.265-14.648c7.683-2.621,19.195-5.018,19.892-14.977c1.705-12.69-0.541-25.537,0.675-38.281
		c-0.086-11.014,1.198-22.854-3.612-32.906c-9.559-8.396-23.463-6.811-34.281-12.75
		C199.695,150.776,188.045,145.134,175.264,145.637z"/>
	<path id="path13982" inkscape:connector-curvature="0" fill="#FFFFFF" d="M246.982,251.199
		c-24.449,7.576-50.089,12.647-72.594,25.438c-9.918,18.762-15.593,39.719-19.656,60.313c3.144,11.185,16.588,14.158,24.04,21.958
		c9.899,7.622,19.979,16.842,32.773,18.729c24.473-7.266,49.797-13.146,72.375-25.563c8.133-16.39,11.755-34.806,18.125-51.906
		c1.722-6.792-0.984-14.402-7.389-17.744c-13.539-11.219-28.037-21.553-43.049-30.6C250.117,251.377,248.54,251.067,246.982,251.199
		z"/>
	<path id="path13984" inkscape:connector-curvature="0" fill="#FFFFFF" d="M65.826,208.168c-8.047,0.23-14.683,7.272-15.031,15.281
		c-5.276,16.986-14.755,33.756-13.625,51.906c6.528,14.552,18.481,25.658,26.734,39.152c6.49,8.451,12.577,18.881,22.391,23.66
		c18.191,1.371,36.533,0.836,54.719,0.344c7.839-1.23,12.825-8.246,14.018-15.665c5.354-15.335,11.583-30.858,14.076-46.835
		c-2.713-14.928-16.217-24.232-23.094-37.156c-7.797-11.118-15.186-23.241-27.188-30.156
		C101.172,207.771,83.486,208.701,65.826,208.168z"/>
	<path id="path13986" inkscape:connector-curvature="0" fill="#FFFFFF" d="M93.482,75.668c-8.512,0.11-16.702,4.488-20.205,12.378
		c-13.289,17.577-28.251,34.388-36.889,54.935c2.987,20.202,11.208,39.128,18.125,58.156c8.342,9.344,21.86,3.685,32.688,5.219
		c12.783,0.593,26.338,1.587,38.188-3.938c16.176-20.149,33.083-40.222,44.031-63.75c-2.981-17.091-10.361-33.017-14.906-49.688
		c-2.507-7.319-9.082-15.041-17.625-13.097C122.421,75.912,107.946,75.545,93.482,75.668z"/>
	
		<radialGradient id="path13988_1_" cx="-41.3745" cy="591.5327" r="74.0948" gradientTransform="matrix(17.7556 0 0 -15.0197 945.6406 8991.2559)" gradientUnits="userSpaceOnUse">
		<stop  offset="0" style="stop-color:#FFFFFF"/>
		<stop  offset="1" style="stop-color:#333333"/>
	</radialGradient>
	<path id="path13988" inkscape:connector-curvature="0" fill="url(#path13988_1_)" d="M207.295,37.449
		c-16.391,6.902-29.348,19.668-43.781,29.719c-6.021,4.272-11.119,11.678-7.875,19.156c3.867,12.19,8.71,24.134,11.673,36.673
		c2.46,9.594,8.237,19.567,18.795,21.514c13.66,3.934,27.217,8.232,40.469,13.563c9.092,2.916,19.394,6.181,28.724,2.986
		c15.992-11.617,33.805-21.759,46.964-36.455c2.86-11.198-6.049-21.002-7.219-31.938c-3.691-11.324-6.07-24.637-15.43-32.847
		c-21.749-10.383-45.438-15.844-68.508-22.685C209.842,37.055,208.457,36.787,207.295,37.449z"/>
	<path id="path13990" inkscape:connector-curvature="0" fill="#FFFFFF" d="M304.795,130.043
		c-8.738,2.982-15.045,10.195-23.156,14.531c-10.487,7.134-21.076,14.494-28.688,24.719c-3.175,24.997-2.713,50.68,0.188,75.656
		c7.299,14.343,23.926,19.031,35.063,29.719c7.133,6.142,18.194,13.713,27.25,6.875c10.031-7.686,20.581-14.652,30.984-21.947
		c7.452-6.01,16.688-13.18,15.046-23.98c1.066-23.004,2.214-46.363-2.093-69.072c-12.913-13.148-29.68-22.101-44.031-33.438
		C312.058,131.335,308.635,129.857,304.795,130.043z"/>
	<path id="path13992" inkscape:connector-curvature="0" d="M317.212,59.946c-0.665-0.003-1.307,0.006-1.969,0.031
		c-7.948,0.293-19.676-1.759-23.938,6.719c-0.445,15.915,8.842,29.971,11.406,45.313c4.233,13.06,15.476,21.719,26.563,28.75
		c9.201,7.079,19.367,17.062,31.75,15.813c8.306-4.818,8.46-16.353,12.375-24.375c0.078-0.55,0.099-1.106,0.156-1.656
		c-11.659-26.992-29.048-50.848-50.656-69.938C321.054,60.112,319.121,59.955,317.212,59.946z"/>
	<path id="path13994" inkscape:connector-curvature="0" d="M176.493,12.946c-29.94,2.861-57.923,12.588-82.375,27.625
		c-5.279,8.931-9.135,19.458-4.875,29.375c10.694,8.041,24.728,1.501,36.844,3.969c12.604,0.93,27.027,0.706,36.375-9.063
		c12.161-9.166,27.497-15.699,35.063-29.594c0.657-9.753-10.412-13.951-16.531-19.344C179.581,14.859,178.073,13.812,176.493,12.946
		z"/>
	<path id="path13996" inkscape:connector-curvature="0" d="M27.306,149.071c-0.856,0.058-1.675,0.314-2.438,0.844
		c-6.593,2.799-14.014,6.797-19.094,12.375c-3.71,15.248-5.719,31.183-5.719,47.594c0,13.935,1.425,27.535,4.125,40.656
		c3.573,4.526,8.927,7.916,13.531,11.219c5.148,3.265,13.897,5.374,17.156-1.469c7.672-11.419,7.865-25.946,14.281-38.031
		c3.816-10.253,4.148-21.873-1.25-31.5c-4.792-14.155-6.127-30.954-18-41.375C29.055,149.152,28.162,149.013,27.306,149.071z"/>
	<path id="path13998" inkscape:connector-curvature="0" d="M137.587,340.446c-1.753,0.013-3.526,0.16-5.313,0.469
		c-8.606,0.234-17.205-0.531-25.813-0.313c-6.908,0.642-17.333-0.269-19.188,8.531c-1.901,8.155,2.833,15.597,5.25,23.094
		c1.245,2.615,2.755,5.718,4.531,8.75c23.438,13.851,49.982,22.907,78.313,25.781c8.917-5.627,20.601-15.999,22.531-25.969
		c-3.731-13.085-19.016-16.731-27.625-25.656C161.198,347.14,149.858,340.36,137.587,340.446z"/>
	<path id="path14000" inkscape:connector-curvature="0" d="M357.431,256.258c-0.593,0.038-1.17,0.216-1.688,0.625
		c-17.505,8.392-32.473,21.007-46.906,33.719c-7.394,11.997-9.059,26.446-14.656,39.281c-2.21,7.079-5.248,17.913,2.406,22.75
		c7.775,3.368,16.841,1.319,24.938,2.031c3.193-0.692,6.198-1.581,9.063-2.656c19.429-19.104,34.934-42.27,45.219-68.156
		c-1.926-9.813-8.09-21.195-15.406-27.063C359.461,256.515,358.42,256.194,357.431,256.258z"/>
	<path id="path14002" inkscape:connector-curvature="0" fill="#FFFFFF" d="M199.868,12.102c-4.969,5.045-3.505,16.604,4.438,18.281
		c26.512,11.469,54.499,19.418,82.344,27.063c6.664,1.352,17.272-0.841,17.344-9.125c-0.052-0.984-0.2-1.896-0.438-2.75
		c-0.003-0.009,0.003-0.022,0-0.031C273.785,25.236,238.205,13.057,199.868,12.102z"/>
	<path id="path14004" inkscape:connector-curvature="0" fill="#FFFFFF" d="M76.899,52.477
		c-29.782,23.055-52.808,54.625-65.594,91.125c5.056,6.256,16.862,3.684,19.875-3.438c19.187-22.14,35.518-46.647,51.031-71.438
		C84.705,63.166,82.69,54.307,76.899,52.477z"/>
	<path id="path14006" inkscape:connector-curvature="0" fill="#FFFFFF" d="M18.024,267.008c-0.462-0.02-0.911-0.003-1.375,0.031
		c-3.314,0.587-5.485,2.71-6.625,5.438c3.513,10.702,7.915,20.979,13.094,30.781c12.816,18.979,26.041,37.79,41.906,54.094
		c0.904,0.821,1.831,1.602,2.75,2.406c5.948,3.332,15.474,0.604,15.219-7.25c0.261-11.272-9.341-19.341-14.406-28.594
		c-13.195-18.292-26.354-36.767-41.563-53.438C24.408,268.566,21.257,267.146,18.024,267.008L18.024,267.008z"/>
	<path id="path14008" inkscape:connector-curvature="0" fill="#FFFFFF" d="M294.868,356.133c-0.419-0.022-0.832-0.005-1.25,0.031
		c-28.888,4.001-55.528,16.864-83.313,25.25c-6.987,2.77-16.96,9.672-13.344,18.219c1.856,2.964,5.066,5.714,8.781,7.813
		c36.111-1.992,69.592-13.973,97.844-33.25c1.28-7.1,0.061-15.4-5.094-17.156C297.377,356.536,296.125,356.201,294.868,356.133
		L294.868,356.133z"/>
	<path id="path14010" inkscape:connector-curvature="0" fill="#FFFFFF" d="M375.368,150.633
		c-10.173,2.016-11.215,14.848-11.094,23.313c-0.286,26.402-1.737,53.069,1.844,79.281c1.613,6.803,10.389,13.017,16.406,7.406
		c0.447-0.399,0.837-0.82,1.219-1.25c2.052-8.081,3.62-16.335,4.656-24.781c0.001-0.031-0.001-0.062,0-0.094
		c0.036-1.271,0.114-2.516,0.25-3.719c0.036-14.929,0.329-29.979-0.188-44.938c-1.347-11.285-3.612-22.29-6.75-32.906
		C379.986,151.438,377.883,150.497,375.368,150.633L375.368,150.633z"/>
</g>
</svg>
