<?xml version="1.0" encoding="UTF-8" ?>
<!DOCTYPE svg PUBLIC "-//W3C//DTD SVG 1.1//EN" "http://www.w3.org/Graphics/SVG/1.1/DTD/svg11.dtd">
<svg width="3220pt" height="3044pt" viewBox="0 0 3220 3044" version="1.1" xmlns="http://www.w3.org/2000/svg">
<g id="#020202ff">
<path fill="#020202" opacity="1.00" d=" M 1411.00 138.11 C 1455.90 127.70 1502.94 132.79 1546.98 144.83 C 1589.73 156.61 1630.24 175.37 1668.68 197.28 C 1733.96 234.89 1793.23 282.35 1846.62 335.36 C 1898.08 386.81 1944.45 443.72 1981.62 506.38 C 2001.83 540.74 2019.18 576.99 2030.80 615.19 C 2138.07 666.73 2237.91 733.45 2327.51 811.70 C 2448.29 917.20 2550.76 1044.13 2625.71 1186.05 C 2664.79 1260.14 2696.35 1338.26 2718.80 1418.98 C 2743.49 1507.49 2757.19 1599.10 2758.94 1690.99 C 2761.94 1834.19 2735.18 1977.46 2684.22 2111.16 C 2657.63 2181.88 2620.85 2248.81 2574.73 2308.68 C 2527.82 2369.93 2471.50 2423.76 2409.25 2469.25 C 2346.37 2515.20 2277.55 2552.75 2205.72 2582.70 C 2126.06 2615.99 2042.64 2639.84 1957.93 2656.18 C 1854.56 2675.77 1749.17 2684.61 1643.99 2682.96 C 1544.73 2681.74 1445.57 2671.67 1348.05 2653.09 C 1242.02 2632.91 1137.89 2602.32 1038.25 2560.74 C 1018.38 2552.03 998.39 2543.54 978.87 2534.07 C 902.36 2497.42 829.20 2453.27 763.02 2400.08 C 722.77 2367.69 685.15 2331.93 651.64 2292.58 C 609.51 2243.31 574.13 2188.09 548.38 2128.53 C 511.92 2046.49 490.56 1958.12 482.26 1868.84 C 475.20 1793.24 477.39 1716.90 486.89 1641.62 C 469.37 1652.15 453.07 1664.52 436.54 1676.52 C 419.82 1689.11 403.13 1701.75 386.48 1714.43 C 371.48 1725.47 356.85 1737.08 340.98 1746.86 C 337.49 1748.64 334.10 1751.33 330.03 1751.39 C 326.51 1748.69 324.71 1744.39 322.51 1740.66 C 312.41 1720.79 304.07 1700.06 296.57 1679.08 C 292.40 1667.07 288.36 1654.98 285.75 1642.52 C 285.04 1638.13 283.80 1633.49 285.09 1629.12 C 287.71 1625.53 292.21 1623.98 296.03 1622.00 C 315.66 1613.36 336.34 1607.43 356.92 1601.52 C 380.02 1595.13 403.35 1589.53 426.84 1584.80 C 450.06 1580.26 473.48 1576.22 497.16 1575.32 C 497.27 1574.95 497.49 1574.20 497.60 1573.83 C 448.58 1571.66 399.78 1566.30 351.11 1560.20 C 301.04 1553.62 251.09 1546.02 201.52 1536.32 C 180.04 1531.83 158.39 1527.67 137.61 1520.50 C 133.81 1518.82 128.47 1517.65 127.43 1512.96 C 125.88 1505.70 127.32 1498.24 128.56 1491.05 C 133.03 1469.13 140.28 1447.92 148.03 1426.98 C 155.13 1408.22 162.87 1389.69 171.61 1371.62 C 176.10 1362.58 180.64 1353.52 186.21 1345.08 C 188.77 1341.44 191.31 1337.61 195.01 1335.05 C 199.44 1334.05 203.94 1335.63 208.20 1336.73 C 226.30 1342.36 243.42 1350.59 260.65 1358.36 C 299.22 1376.38 337.12 1395.78 375.20 1414.79 C 414.81 1434.56 454.24 1454.70 494.34 1473.46 C 499.94 1475.95 505.42 1478.69 511.10 1481.00 C 480.15 1460.86 451.37 1437.60 423.23 1413.75 C 394.68 1389.09 366.71 1363.63 341.12 1335.87 C 334.87 1328.44 327.91 1321.38 323.39 1312.70 C 322.07 1310.47 322.26 1307.81 323.52 1305.63 C 327.55 1297.67 333.77 1291.13 339.61 1284.49 C 352.08 1271.00 365.46 1258.39 379.15 1246.15 C 394.60 1232.49 410.36 1219.12 427.17 1207.15 C 431.91 1204.08 436.49 1200.39 442.00 1198.84 C 445.46 1199.32 447.30 1203.01 449.34 1205.52 C 459.58 1220.96 467.37 1237.86 475.65 1254.40 C 498.47 1301.03 519.55 1348.56 544.40 1394.18 C 570.34 1317.02 602.98 1242.15 641.26 1170.32 C 678.81 1099.67 722.03 1032.05 770.16 968.14 C 815.28 908.32 864.79 851.76 918.70 799.69 C 977.37 742.76 1041.40 691.28 1110.18 647.05 C 1063.93 641.35 1017.67 633.36 973.45 618.34 C 949.64 609.99 926.04 599.68 906.29 583.69 C 893.79 573.49 882.94 560.43 878.16 544.80 C 873.16 529.29 874.80 512.29 880.22 497.12 C 892.07 469.83 911.08 445.83 934.26 427.25 C 957.64 408.42 984.89 394.84 1013.21 385.16 C 1059.77 369.36 1109.11 363.49 1158.08 362.47 C 1212.35 361.71 1266.61 367.06 1319.96 376.81 C 1309.78 364.68 1300.92 351.41 1293.54 337.39 C 1284.46 319.95 1278.07 300.81 1277.08 281.06 C 1275.26 249.76 1288.26 218.36 1310.32 196.33 C 1337.12 167.52 1372.49 146.58 1411.00 138.11 M 1462.07 184.59 C 1445.39 186.57 1428.94 191.25 1414.08 199.13 C 1395.89 208.58 1380.45 222.86 1368.63 239.53 C 1358.86 253.04 1352.26 269.18 1351.61 285.97 C 1350.76 304.64 1356.82 322.96 1365.84 339.11 C 1375.53 356.38 1388.32 371.70 1402.13 385.81 C 1427.81 411.62 1457.18 433.41 1487.36 453.62 C 1520.99 475.77 1556.01 495.73 1591.72 514.33 C 1661.90 550.85 1734.67 582.19 1808.35 610.90 C 1774.40 604.37 1740.66 596.77 1706.95 589.12 C 1662.13 578.82 1617.51 567.71 1573.06 555.93 C 1568.79 554.40 1564.84 552.10 1560.71 550.24 C 1525.83 533.04 1491.79 514.11 1459.02 493.18 C 1427.21 472.90 1396.31 451.04 1367.96 426.10 C 1366.31 424.74 1364.89 423.00 1362.91 422.16 C 1336.28 415.39 1309.16 410.74 1282.07 406.22 C 1227.55 398.21 1172.02 394.67 1117.11 400.63 C 1092.24 403.58 1067.43 408.23 1043.82 416.77 C 1021.13 425.08 999.16 436.69 981.92 453.91 C 968.89 466.80 958.92 482.87 953.61 500.44 C 950.08 512.29 950.01 525.47 955.19 536.86 C 960.78 549.75 971.56 559.45 983.02 567.14 C 1001.07 578.80 1021.45 586.22 1041.98 592.24 C 1084.07 604.13 1127.59 609.95 1171.05 614.05 C 1276.16 623.13 1381.88 621.62 1487.14 616.38 C 1408.40 631.13 1329.30 643.94 1249.98 655.14 C 1246.62 655.66 1243.02 655.28 1240.00 657.10 C 1176.41 687.31 1116.24 724.53 1060.00 766.82 C 1000.22 811.67 944.82 862.24 893.87 916.88 C 790.71 1027.94 705.46 1155.64 642.58 1293.57 C 606.15 1373.87 577.25 1457.71 558.42 1543.91 C 537.72 1638.56 529.06 1736.21 536.97 1832.92 C 544.08 1920.49 565.17 2007.22 601.88 2087.17 C 607.94 2100.94 615.14 2114.16 622.99 2126.99 C 655.26 2180.84 696.01 2229.31 741.52 2272.42 C 777.97 2306.92 817.55 2338.03 859.15 2366.08 C 899.12 2393.11 941.03 2417.24 984.17 2438.85 C 1020.11 2457.21 1057.11 2473.42 1094.63 2488.26 C 1174.17 2519.52 1256.50 2543.51 1340.10 2561.14 C 1388.09 2570.91 1436.42 2579.23 1485.11 2584.63 C 1511.64 2587.85 1538.26 2590.38 1564.94 2591.99 C 1667.66 2599.13 1771.12 2596.20 1873.19 2582.50 C 1962.86 2570.25 2051.52 2549.50 2136.54 2518.31 C 2211.73 2490.46 2284.22 2454.74 2350.41 2409.32 C 2387.22 2384.17 2422.09 2356.13 2454.32 2325.31 C 2509.92 2272.31 2557.50 2210.88 2594.60 2143.61 C 2613.58 2109.13 2630.28 2073.33 2643.21 2036.14 C 2675.79 1945.43 2696.41 1850.31 2702.68 1754.08 C 2709.03 1657.85 2700.84 1560.71 2678.78 1466.84 C 2665.46 1471.02 2651.85 1474.19 2638.25 1477.32 C 2591.03 1487.90 2543.52 1497.09 2495.97 1506.00 C 2494.59 1506.49 2492.49 1505.95 2491.79 1507.48 C 2493.32 1509.38 2494.85 1511.32 2496.65 1513.03 C 2502.47 1521.69 2508.71 1530.11 2513.71 1539.31 C 2543.76 1593.03 2551.99 1658.11 2538.14 1717.93 C 2529.32 1756.12 2510.93 1792.32 2483.91 1820.85 C 2457.60 1848.95 2423.21 1868.96 2386.33 1879.58 C 2418.85 1909.40 2449.76 1941.00 2478.61 1974.40 C 2507.02 2007.65 2533.93 2042.52 2555.05 2080.94 C 2563.72 2097.13 2571.50 2114.07 2575.35 2132.13 C 2577.83 2143.96 2578.41 2156.94 2572.80 2168.01 C 2550.91 2164.60 2528.80 2163.04 2506.74 2161.29 C 2478.81 2159.34 2450.87 2157.49 2422.92 2155.78 C 2379.55 2201.38 2331.27 2241.98 2282.33 2281.42 C 2236.51 2317.99 2189.59 2353.22 2141.08 2386.15 C 2122.65 2398.24 2104.35 2410.60 2084.86 2420.93 C 2077.55 2424.50 2070.23 2428.90 2061.98 2429.65 C 2054.09 2428.98 2047.09 2424.69 2040.43 2420.74 C 2029.82 2414.23 2020.08 2406.44 2010.44 2398.62 C 1981.66 2374.52 1954.77 2348.27 1928.43 2321.56 C 1903.32 2296.00 1878.89 2269.75 1855.07 2242.99 C 1829.10 2214.15 1803.92 2184.62 1779.46 2154.50 C 1757.00 2127.10 1735.40 2098.97 1715.21 2069.85 C 1707.93 2064.35 1699.05 2058.80 1697.15 2049.12 C 1695.41 2036.36 1699.36 2023.63 1704.39 2012.04 C 1706.60 2007.05 1709.21 2002.25 1711.76 1997.44 L 1711.94 1997.45 C 1723.41 1977.48 1737.99 1959.50 1753.32 1942.39 C 1768.50 1925.47 1784.75 1909.55 1801.37 1894.06 C 1773.19 1891.25 1745.19 1885.05 1719.10 1873.91 C 1696.09 1864.13 1674.59 1850.69 1656.08 1833.87 C 1637.34 1816.90 1621.63 1796.62 1609.66 1774.36 C 1576.81 1713.01 1571.68 1638.66 1591.11 1572.26 C 1600.99 1538.64 1617.27 1506.74 1639.85 1479.87 C 1640.54 1479.24 1641.71 1477.34 1639.95 1477.35 C 1636.13 1476.50 1632.32 1475.67 1628.52 1474.85 C 1580.15 1463.85 1531.72 1453.08 1483.82 1440.20 C 1476.22 1437.98 1468.50 1436.03 1461.24 1432.85 C 1457.95 1431.75 1457.83 1427.82 1457.62 1424.96 C 1457.31 1415.05 1458.90 1405.21 1460.35 1395.45 C 1464.67 1369.36 1470.80 1343.61 1477.48 1318.03 C 1482.93 1297.81 1488.67 1277.63 1495.94 1257.97 C 1498.27 1252.15 1500.39 1246.12 1504.03 1240.97 C 1505.79 1238.07 1509.31 1239.92 1511.91 1240.30 C 1529.72 1244.87 1547.12 1250.88 1564.64 1256.47 C 1610.57 1271.46 1656.18 1287.44 1701.91 1303.06 C 1767.92 1325.96 1833.88 1349.03 1899.72 1372.42 C 1957.97 1393.06 2016.28 1413.55 2074.47 1434.36 C 2082.99 1437.19 2091.31 1440.81 2099.97 1443.14 C 2119.05 1437.41 2137.96 1431.06 2156.97 1425.10 C 2245.26 1397.28 2333.46 1369.19 2421.95 1342.02 C 2466.54 1328.29 2511.19 1314.75 2556.02 1301.83 C 2576.53 1296.15 2596.92 1289.91 2617.79 1285.68 C 2552.43 1137.74 2453.77 1005.45 2334.81 896.26 C 2243.49 812.31 2139.76 741.94 2028.15 687.83 C 2025.28 678.59 2021.97 669.49 2018.56 660.44 C 1991.57 590.47 1952.16 525.81 1906.46 466.56 C 1881.54 434.11 1854.46 403.31 1825.58 374.32 C 1772.57 321.02 1713.67 273.06 1648.22 235.80 C 1611.18 214.94 1571.73 197.58 1530.04 188.60 C 1507.73 184.13 1484.75 181.79 1462.07 184.59 M 1620.27 1566.94 C 1610.48 1600.31 1608.47 1635.94 1614.42 1670.19 C 1620.25 1703.70 1634.13 1735.96 1655.44 1762.55 C 1670.22 1781.19 1688.67 1796.84 1709.22 1808.79 C 1731.89 1822.06 1757.09 1830.64 1782.86 1835.44 C 1810.22 1840.31 1838.25 1841.37 1865.91 1839.00 C 1880.19 1828.30 1894.24 1817.21 1908.75 1806.78 C 1957.72 1771.52 2008.63 1738.64 2062.71 1711.73 C 2066.35 1704.85 2068.42 1697.07 2070.76 1689.62 C 2082.05 1650.27 2080.97 1607.52 2068.29 1568.66 C 2060.74 1566.65 2052.97 1565.45 2045.36 1563.74 C 1919.10 1537.62 1792.93 1511.06 1667.01 1483.41 C 1644.87 1506.86 1629.28 1536.08 1620.27 1566.94 M 2186.00 1560.97 C 2164.94 1564.65 2143.76 1567.81 2122.79 1571.80 C 2116.44 1590.53 2112.92 1610.23 2111.95 1629.98 C 2112.23 1642.67 2111.35 1655.42 2113.08 1668.04 C 2114.67 1681.75 2117.79 1695.23 2121.64 1708.48 C 2125.27 1710.06 2129.17 1710.90 2132.89 1712.33 C 2175.23 1726.66 2214.43 1748.81 2251.71 1773.22 C 2282.67 1793.61 2312.29 1815.97 2340.89 1839.54 C 2359.00 1837.58 2376.99 1834.03 2394.22 1828.03 C 2432.06 1815.33 2465.93 1790.29 2487.74 1756.70 C 2514.57 1715.98 2523.70 1664.83 2515.76 1616.98 C 2509.43 1577.89 2491.78 1540.36 2464.04 1511.89 C 2371.50 1529.02 2278.77 1545.13 2186.00 1560.97 M 2061.87 1752.57 C 2023.01 1767.87 1986.05 1787.65 1950.62 1809.68 C 1917.21 1830.57 1885.14 1853.63 1854.99 1879.00 C 1825.49 1904.06 1797.28 1931.14 1774.69 1962.73 C 1764.18 1977.92 1754.58 1994.35 1750.73 2012.61 C 1749.58 2019.38 1748.59 2026.59 1750.66 2033.29 C 1753.98 2041.18 1761.48 2046.19 1768.61 2050.36 C 1785.73 2059.82 1804.69 2065.18 1823.42 2070.41 C 1845.66 2076.29 1868.26 2080.67 1890.88 2084.79 C 1934.32 2092.26 1978.02 2098.10 2021.85 2102.69 C 2120.25 2113.46 2219.06 2120.20 2317.93 2124.86 C 2375.57 2127.52 2433.25 2129.49 2490.95 2129.61 C 2501.84 2129.11 2512.86 2129.75 2523.64 2127.89 C 2526.92 2121.11 2528.11 2113.47 2527.52 2106.01 C 2526.08 2087.92 2518.28 2071.13 2509.70 2055.42 C 2492.05 2023.92 2468.84 1995.98 2444.64 1969.36 C 2418.50 1941.07 2390.33 1914.73 2360.95 1889.86 C 2329.90 1863.89 2297.52 1839.45 2263.47 1817.55 C 2229.17 1795.54 2193.37 1775.54 2155.33 1760.76 C 2133.63 1752.59 2111.18 1745.65 2088.02 1743.45 C 2079.15 1746.03 2070.50 1749.31 2061.87 1752.57 M 1776.07 2091.86 C 1822.44 2147.26 1871.42 2200.42 1921.96 2252.03 C 1946.93 2277.40 1972.34 2302.37 1998.80 2326.20 C 2012.66 2338.75 2026.91 2350.94 2042.14 2361.82 C 2048.19 2365.96 2054.44 2370.07 2061.45 2372.41 C 2065.66 2373.84 2069.94 2371.91 2073.89 2370.51 C 2086.15 2365.78 2097.58 2359.23 2109.19 2353.15 C 2144.37 2333.62 2178.45 2312.17 2211.94 2289.90 C 2242.93 2269.55 2273.09 2247.95 2302.77 2225.76 C 2332.34 2203.16 2361.51 2179.85 2387.94 2153.58 C 2380.29 2153.46 2372.69 2152.69 2365.06 2152.36 C 2261.02 2146.05 2156.92 2140.21 2053.11 2130.75 C 2006.32 2126.86 1959.62 2121.94 1913.05 2116.04 C 1867.09 2109.87 1821.09 2103.13 1776.07 2091.86 Z" />
<path fill="#020202" opacity="1.00" d=" M 1911.59 1564.83 C 1927.41 1562.78 1943.91 1565.36 1958.06 1572.84 C 1982.31 1585.11 1999.13 1610.79 2000.33 1637.99 C 2002.07 1664.46 1989.05 1691.21 1967.25 1706.28 C 1952.25 1716.89 1933.39 1722.00 1915.09 1720.24 C 1892.15 1718.24 1870.47 1705.50 1857.59 1686.42 C 1844.81 1668.03 1840.78 1643.99 1846.56 1622.39 C 1854.10 1592.45 1880.96 1568.69 1911.59 1564.83 Z" />
<path fill="#020202" opacity="1.00" d=" M 2216.63 1583.77 C 2237.48 1580.60 2259.62 1588.63 2273.51 1604.51 C 2286.22 1618.48 2292.00 1638.35 2289.00 1656.98 C 2286.22 1675.70 2274.48 1692.79 2258.13 1702.27 C 2242.12 1711.79 2221.85 1713.70 2204.34 1707.37 C 2186.60 1701.19 2172.02 1686.73 2165.61 1669.08 C 2158.97 1651.15 2160.93 1630.28 2170.95 1613.97 C 2180.68 1597.78 2197.89 1586.33 2216.63 1583.77 Z" />
</g>
<g id="#d6002dff">
<path fill="#d6002d" opacity="1.00" d=" M 1462.07 184.59 C 1484.75 181.79 1507.73 184.13 1530.04 188.60 C 1571.73 197.58 1611.18 214.94 1648.22 235.80 C 1713.67 273.06 1772.57 321.02 1825.58 374.32 C 1854.46 403.31 1881.54 434.11 1906.46 466.56 C 1952.16 525.81 1991.57 590.47 2018.56 660.44 C 2021.97 669.49 2025.28 678.59 2028.15 687.83 C 2139.76 741.94 2243.49 812.31 2334.81 896.26 C 2453.77 1005.45 2552.43 1137.74 2617.79 1285.68 C 2596.92 1289.91 2576.53 1296.15 2556.02 1301.83 C 2511.19 1314.75 2466.54 1328.29 2421.95 1342.02 C 2333.46 1369.19 2245.26 1397.28 2156.97 1425.10 C 2137.96 1431.06 2119.05 1437.41 2099.97 1443.14 C 2091.31 1440.81 2082.99 1437.19 2074.47 1434.36 C 2016.28 1413.55 1957.97 1393.06 1899.72 1372.42 C 1833.88 1349.03 1767.92 1325.96 1701.91 1303.06 C 1656.18 1287.44 1610.57 1271.46 1564.64 1256.47 C 1547.12 1250.88 1529.72 1244.87 1511.91 1240.30 C 1509.31 1239.92 1505.79 1238.07 1504.03 1240.97 C 1500.39 1246.12 1498.27 1252.15 1495.94 1257.97 C 1488.67 1277.63 1482.93 1297.81 1477.48 1318.03 C 1470.80 1343.61 1464.67 1369.36 1460.35 1395.45 C 1458.90 1405.21 1457.31 1415.05 1457.62 1424.96 C 1457.83 1427.82 1457.95 1431.75 1461.24 1432.85 C 1468.50 1436.03 1476.22 1437.98 1483.82 1440.20 C 1531.72 1453.08 1580.15 1463.85 1628.52 1474.85 C 1622.69 1480.58 1616.11 1485.49 1610.34 1491.28 C 1585.53 1514.79 1563.90 1541.51 1544.90 1569.88 C 1527.90 1595.17 1513.19 1621.97 1500.46 1649.65 C 1484.74 1684.16 1472.24 1720.24 1464.47 1757.39 C 1456.48 1796.05 1453.41 1836.31 1460.54 1875.35 C 1466.08 1905.60 1478.95 1935.18 1500.75 1957.28 C 1520.71 1977.98 1547.41 1991.18 1575.18 1997.78 C 1613.71 2006.85 1653.93 2005.39 1692.85 1999.73 C 1699.16 1999.07 1705.36 1996.89 1711.76 1997.44 C 1709.21 2002.25 1706.60 2007.05 1704.39 2012.04 C 1587.66 2007.50 1470.27 2021.94 1357.94 2053.92 C 1255.03 2083.07 1156.22 2127.12 1066.50 2185.42 C 989.34 2235.46 919.01 2296.21 859.15 2366.08 C 817.55 2338.03 777.97 2306.92 741.52 2272.42 C 696.01 2229.31 655.26 2180.84 622.99 2126.99 C 615.14 2114.16 607.94 2100.94 601.88 2087.17 C 565.17 2007.22 544.08 1920.49 536.97 1832.92 C 529.06 1736.21 537.72 1638.56 558.42 1543.91 C 577.25 1457.71 606.15 1373.87 642.58 1293.57 C 705.46 1155.64 790.71 1027.94 893.87 916.88 C 944.82 862.24 1000.22 811.67 1060.00 766.82 C 1116.24 724.53 1176.41 687.31 1240.00 657.10 C 1243.02 655.28 1246.62 655.66 1249.98 655.14 C 1329.30 643.94 1408.40 631.13 1487.14 616.38 C 1381.88 621.62 1276.16 623.13 1171.05 614.05 C 1127.59 609.95 1084.07 604.13 1041.98 592.24 C 1021.45 586.22 1001.07 578.80 983.02 567.14 C 971.56 559.45 960.78 549.75 955.19 536.86 C 950.01 525.47 950.08 512.29 953.61 500.44 C 958.92 482.87 968.89 466.80 981.92 453.91 C 999.16 436.69 1021.13 425.08 1043.82 416.77 C 1067.43 408.23 1092.24 403.58 1117.11 400.63 C 1172.02 394.67 1227.55 398.21 1282.07 406.22 C 1309.16 410.74 1336.28 415.39 1362.91 422.16 C 1364.89 423.00 1366.31 424.74 1367.96 426.10 C 1396.31 451.04 1427.21 472.90 1459.02 493.18 C 1491.79 514.11 1525.83 533.04 1560.71 550.24 C 1564.84 552.10 1568.79 554.40 1573.06 555.93 C 1617.51 567.71 1662.13 578.82 1706.95 589.12 C 1740.66 596.77 1774.40 604.37 1808.35 610.90 C 1734.67 582.19 1661.90 550.85 1591.72 514.33 C 1556.01 495.73 1520.99 475.77 1487.36 453.62 C 1457.18 433.41 1427.81 411.62 1402.13 385.81 C 1388.32 371.70 1375.53 356.38 1365.84 339.11 C 1356.82 322.96 1350.76 304.64 1351.61 285.97 C 1352.26 269.18 1358.86 253.04 1368.63 239.53 C 1380.45 222.86 1395.89 208.58 1414.08 199.13 C 1428.94 191.25 1445.39 186.57 1462.07 184.59 M 1257.30 1596.39 C 1241.88 1598.52 1228.43 1607.83 1218.16 1619.15 C 1206.47 1631.70 1198.27 1647.04 1191.48 1662.67 C 1181.56 1686.30 1175.46 1711.38 1171.56 1736.67 C 1164.73 1782.82 1164.86 1830.15 1173.20 1876.10 C 1178.74 1905.15 1187.63 1934.15 1204.03 1959.03 C 1214.91 1975.38 1230.22 1989.66 1249.26 1995.67 C 1265.27 2000.87 1282.76 1999.64 1298.67 1994.65 C 1315.12 1989.77 1330.17 1980.49 1342.18 1968.25 C 1363.38 1946.28 1374.41 1916.62 1379.82 1887.05 C 1387.02 1845.95 1384.59 1803.67 1376.77 1762.85 C 1369.20 1725.29 1357.16 1688.33 1338.08 1654.97 C 1328.21 1638.46 1316.81 1622.36 1301.46 1610.50 C 1289.14 1600.68 1273.28 1593.96 1257.30 1596.39 M 974.31 1792.45 C 944.83 1797.43 918.05 1817.20 905.24 1844.32 C 894.05 1867.39 892.28 1894.04 896.24 1919.10 C 901.32 1950.59 915.04 1980.84 936.25 2004.75 C 948.31 2017.94 963.04 2029.08 980.08 2034.91 C 998.02 2041.19 1018.23 2040.17 1035.67 2032.73 C 1048.71 2027.67 1060.22 2018.76 1068.21 2007.26 C 1078.89 1992.31 1083.71 1974.02 1085.60 1955.97 C 1087.24 1938.18 1085.96 1920.18 1082.44 1902.69 C 1077.90 1880.62 1069.94 1859.13 1057.94 1840.00 C 1049.11 1825.96 1037.90 1813.15 1024.01 1803.94 C 1009.52 1794.30 991.61 1789.75 974.31 1792.45 Z" />
<path fill="#d6002d" opacity="1.00" d=" M 2638.25 1477.32 C 2651.85 1474.19 2665.46 1471.02 2678.78 1466.84 C 2700.84 1560.71 2709.03 1657.85 2702.68 1754.08 C 2696.41 1850.31 2675.79 1945.43 2643.21 2036.14 C 2630.28 2073.33 2613.58 2109.13 2594.60 2143.61 C 2557.50 2210.88 2509.92 2272.31 2454.32 2325.31 C 2422.09 2356.13 2387.22 2384.17 2350.41 2409.32 C 2333.78 2363.81 2310.73 2320.67 2282.33 2281.42 C 2331.27 2241.98 2379.55 2201.38 2422.92 2155.78 C 2450.87 2157.49 2478.81 2159.34 2506.74 2161.29 C 2528.80 2163.04 2550.91 2164.60 2572.80 2168.01 C 2578.41 2156.94 2577.83 2143.96 2575.35 2132.13 C 2571.50 2114.07 2563.72 2097.13 2555.05 2080.94 C 2533.93 2042.52 2507.02 2007.65 2478.61 1974.40 C 2511.11 1968.41 2542.07 1952.94 2565.25 1929.22 C 2590.71 1903.46 2606.74 1869.51 2614.44 1834.37 C 2623.70 1792.50 2622.20 1748.72 2613.12 1706.95 C 2598.83 1640.97 2565.35 1579.21 2517.57 1531.50 C 2510.60 1525.33 2504.54 1518.08 2496.65 1513.03 C 2494.85 1511.32 2493.32 1509.38 2491.79 1507.48 C 2492.49 1505.95 2494.59 1506.49 2495.97 1506.00 C 2543.52 1497.09 2591.03 1487.90 2638.25 1477.32 Z" />
</g>
<g id="#a80023ff">
<path fill="#a80023" opacity="1.00" d=" M 1628.52 1474.85 C 1632.32 1475.67 1636.13 1476.50 1639.95 1477.35 C 1641.71 1477.34 1640.54 1479.24 1639.85 1479.87 C 1617.27 1506.74 1600.99 1538.64 1591.11 1572.26 C 1571.68 1638.66 1576.81 1713.01 1609.66 1774.36 C 1621.63 1796.62 1637.34 1816.90 1656.08 1833.87 C 1674.59 1850.69 1696.09 1864.13 1719.10 1873.91 C 1745.19 1885.05 1773.19 1891.25 1801.37 1894.06 C 1784.75 1909.55 1768.50 1925.47 1753.32 1942.39 C 1737.99 1959.50 1723.41 1977.48 1711.94 1997.45 L 1711.76 1997.44 C 1705.36 1996.89 1699.16 1999.07 1692.85 1999.73 C 1653.93 2005.39 1613.71 2006.85 1575.18 1997.78 C 1547.41 1991.18 1520.71 1977.98 1500.75 1957.28 C 1478.95 1935.18 1466.08 1905.60 1460.54 1875.35 C 1453.41 1836.31 1456.48 1796.05 1464.47 1757.39 C 1472.24 1720.24 1484.74 1684.16 1500.46 1649.65 C 1513.19 1621.97 1527.90 1595.17 1544.90 1569.88 C 1563.90 1541.51 1585.53 1514.79 1610.34 1491.28 C 1616.11 1485.49 1622.69 1480.58 1628.52 1474.85 Z" />
<path fill="#a80023" opacity="1.00" d=" M 2496.65 1513.03 C 2504.54 1518.08 2510.60 1525.33 2517.57 1531.50 C 2565.35 1579.21 2598.83 1640.97 2613.12 1706.95 C 2622.20 1748.72 2623.70 1792.50 2614.44 1834.37 C 2606.74 1869.51 2590.71 1903.46 2565.25 1929.22 C 2542.07 1952.94 2511.11 1968.41 2478.61 1974.40 C 2449.76 1941.00 2418.85 1909.40 2386.33 1879.58 C 2423.21 1868.96 2457.60 1848.95 2483.91 1820.85 C 2510.93 1792.32 2529.32 1756.12 2538.14 1717.93 C 2551.99 1658.11 2543.76 1593.03 2513.71 1539.31 C 2508.71 1530.11 2502.47 1521.69 2496.65 1513.03 Z" />
<path fill="#a80023" opacity="1.00" d=" M 1257.30 1596.39 C 1273.28 1593.96 1289.14 1600.68 1301.46 1610.50 C 1316.81 1622.36 1328.21 1638.46 1338.08 1654.97 C 1357.16 1688.33 1369.20 1725.29 1376.77 1762.85 C 1384.59 1803.67 1387.02 1845.95 1379.82 1887.05 C 1374.41 1916.62 1363.38 1946.28 1342.18 1968.25 C 1330.17 1980.49 1315.12 1989.77 1298.67 1994.65 C 1282.76 1999.64 1265.27 2000.87 1249.26 1995.67 C 1230.22 1989.66 1214.91 1975.38 1204.03 1959.03 C 1187.63 1934.15 1178.74 1905.15 1173.20 1876.10 C 1164.86 1830.15 1164.73 1782.82 1171.56 1736.67 C 1175.46 1711.38 1181.56 1686.30 1191.48 1662.67 C 1198.27 1647.04 1206.47 1631.70 1218.16 1619.15 C 1228.43 1607.83 1241.88 1598.52 1257.30 1596.39 Z" />
<path fill="#a80023" opacity="1.00" d=" M 974.31 1792.45 C 991.61 1789.75 1009.52 1794.30 1024.01 1803.94 C 1037.90 1813.15 1049.11 1825.96 1057.94 1840.00 C 1069.94 1859.13 1077.90 1880.62 1082.44 1902.69 C 1085.96 1920.18 1087.24 1938.18 1085.60 1955.97 C 1083.71 1974.02 1078.89 1992.31 1068.21 2007.26 C 1060.22 2018.76 1048.71 2027.67 1035.67 2032.73 C 1018.23 2040.17 998.02 2041.19 980.08 2034.91 C 963.04 2029.08 948.31 2017.94 936.25 2004.75 C 915.04 1980.84 901.32 1950.59 896.24 1919.10 C 892.28 1894.04 894.05 1867.39 905.24 1844.32 C 918.05 1817.20 944.83 1797.43 974.31 1792.45 Z" />
</g>
<g id="#fdfdfdff">
<path fill="#fdfdfd" opacity="1.00" d=" M 1620.27 1566.94 C 1629.28 1536.08 1644.87 1506.86 1667.01 1483.41 C 1792.93 1511.06 1919.10 1537.62 2045.36 1563.74 C 2052.97 1565.45 2060.74 1566.65 2068.29 1568.66 C 2080.97 1607.52 2082.05 1650.27 2070.76 1689.62 C 2068.42 1697.07 2066.35 1704.85 2062.71 1711.73 C 2008.63 1738.64 1957.72 1771.52 1908.75 1806.78 C 1894.24 1817.21 1880.19 1828.30 1865.91 1839.00 C 1838.25 1841.37 1810.22 1840.31 1782.86 1835.44 C 1757.09 1830.64 1731.89 1822.06 1709.22 1808.79 C 1688.67 1796.84 1670.22 1781.19 1655.44 1762.55 C 1634.13 1735.96 1620.25 1703.70 1614.42 1670.19 C 1608.47 1635.94 1610.48 1600.31 1620.27 1566.94 M 1911.59 1564.83 C 1880.96 1568.69 1854.10 1592.45 1846.56 1622.39 C 1840.78 1643.99 1844.81 1668.03 1857.59 1686.42 C 1870.47 1705.50 1892.15 1718.24 1915.09 1720.24 C 1933.39 1722.00 1952.25 1716.89 1967.25 1706.28 C 1989.05 1691.21 2002.07 1664.46 2000.33 1637.99 C 1999.13 1610.79 1982.31 1585.11 1958.06 1572.84 C 1943.91 1565.36 1927.41 1562.78 1911.59 1564.83 Z" />
<path fill="#fdfdfd" opacity="1.00" d=" M 2186.00 1560.97 C 2278.77 1545.13 2371.50 1529.02 2464.04 1511.89 C 2491.78 1540.36 2509.43 1577.89 2515.76 1616.98 C 2523.70 1664.83 2514.57 1715.98 2487.74 1756.70 C 2465.93 1790.29 2432.06 1815.33 2394.22 1828.03 C 2376.99 1834.03 2359.00 1837.58 2340.89 1839.54 C 2312.29 1815.97 2282.67 1793.61 2251.71 1773.22 C 2214.43 1748.81 2175.23 1726.66 2132.89 1712.33 C 2129.17 1710.90 2125.27 1710.06 2121.64 1708.48 C 2117.79 1695.23 2114.67 1681.75 2113.08 1668.04 C 2111.35 1655.42 2112.23 1642.67 2111.95 1629.98 C 2112.92 1610.23 2116.44 1590.53 2122.79 1571.80 C 2143.76 1567.81 2164.94 1564.65 2186.00 1560.97 M 2216.63 1583.77 C 2197.89 1586.33 2180.68 1597.78 2170.95 1613.97 C 2160.93 1630.28 2158.97 1651.15 2165.61 1669.08 C 2172.02 1686.73 2186.60 1701.19 2204.34 1707.37 C 2221.85 1713.70 2242.12 1711.79 2258.13 1702.27 C 2274.48 1692.79 2286.22 1675.70 2289.00 1656.98 C 2292.00 1638.35 2286.22 1618.48 2273.51 1604.51 C 2259.62 1588.63 2237.48 1580.60 2216.63 1583.77 Z" />
</g>
<g id="#f9b21eff">
<path fill="#f9b21e" opacity="1.00" d=" M 2061.87 1752.57 C 2070.50 1749.31 2079.15 1746.03 2088.02 1743.45 C 2111.18 1745.65 2133.63 1752.59 2155.33 1760.76 C 2193.37 1775.54 2229.17 1795.54 2263.47 1817.55 C 2297.52 1839.45 2329.90 1863.89 2360.95 1889.86 C 2390.33 1914.73 2418.50 1941.07 2444.64 1969.36 C 2468.84 1995.98 2492.05 2023.92 2509.70 2055.42 C 2518.28 2071.13 2526.08 2087.92 2527.52 2106.01 C 2528.11 2113.47 2526.92 2121.11 2523.64 2127.89 C 2512.86 2129.75 2501.84 2129.11 2490.95 2129.61 C 2433.25 2129.49 2375.57 2127.52 2317.93 2124.86 C 2219.06 2120.20 2120.25 2113.46 2021.85 2102.69 C 1978.02 2098.10 1934.32 2092.26 1890.88 2084.79 C 1868.26 2080.67 1845.66 2076.29 1823.42 2070.41 C 1804.69 2065.18 1785.73 2059.82 1768.61 2050.36 C 1761.48 2046.19 1753.98 2041.18 1750.66 2033.29 C 1748.59 2026.59 1749.58 2019.38 1750.73 2012.61 C 1754.58 1994.35 1764.18 1977.92 1774.69 1962.73 C 1797.28 1931.14 1825.49 1904.06 1854.99 1879.00 C 1885.14 1853.63 1917.21 1830.57 1950.62 1809.68 C 1986.05 1787.65 2023.01 1767.87 2061.87 1752.57 Z" />
<path fill="#f9b21e" opacity="1.00" d=" M 1776.07 2091.86 C 1821.09 2103.13 1867.09 2109.87 1913.05 2116.04 C 1959.62 2121.94 2006.32 2126.86 2053.11 2130.75 C 2156.92 2140.21 2261.02 2146.05 2365.06 2152.36 C 2372.69 2152.69 2380.29 2153.46 2387.94 2153.58 C 2361.51 2179.85 2332.34 2203.16 2302.77 2225.76 C 2273.09 2247.95 2242.93 2269.55 2211.94 2289.90 C 2178.45 2312.17 2144.37 2333.62 2109.19 2353.15 C 2097.58 2359.23 2086.15 2365.78 2073.89 2370.51 C 2069.94 2371.91 2065.66 2373.84 2061.45 2372.41 C 2054.44 2370.07 2048.19 2365.96 2042.14 2361.82 C 2026.91 2350.94 2012.66 2338.75 1998.80 2326.20 C 1972.34 2302.37 1946.93 2277.40 1921.96 2252.03 C 1871.42 2200.42 1822.44 2147.26 1776.07 2091.86 Z" />
</g>
<g id="#e2c4a8ff">
<path fill="#e2c4a8" opacity="1.00" d=" M 1357.94 2053.92 C 1470.27 2021.94 1587.66 2007.50 1704.39 2012.04 C 1699.36 2023.63 1695.41 2036.36 1697.15 2049.12 C 1699.05 2058.80 1707.93 2064.35 1715.21 2069.85 C 1735.40 2098.97 1757.00 2127.10 1779.46 2154.50 C 1803.92 2184.62 1829.10 2214.15 1855.07 2242.99 C 1878.89 2269.75 1903.32 2296.00 1928.43 2321.56 C 1954.77 2348.27 1981.66 2374.52 2010.44 2398.62 C 2020.08 2406.44 2029.82 2414.23 2040.43 2420.74 C 2047.09 2424.69 2054.09 2428.98 2061.98 2429.65 C 2070.23 2428.90 2077.55 2424.50 2084.86 2420.93 C 2104.35 2410.60 2122.65 2398.24 2141.08 2386.15 C 2189.59 2353.22 2236.51 2317.99 2282.33 2281.42 C 2310.73 2320.67 2333.78 2363.81 2350.41 2409.32 C 2284.22 2454.74 2211.73 2490.46 2136.54 2518.31 C 2051.52 2549.50 1962.86 2570.25 1873.19 2582.50 C 1771.12 2596.20 1667.66 2599.13 1564.94 2591.99 C 1538.26 2590.38 1511.64 2587.85 1485.11 2584.63 C 1436.42 2579.23 1388.09 2570.91 1340.10 2561.14 C 1256.50 2543.51 1174.17 2519.52 1094.63 2488.26 C 1057.11 2473.42 1020.11 2457.21 984.17 2438.85 C 941.03 2417.24 899.12 2393.11 859.15 2366.08 C 919.01 2296.21 989.34 2235.46 1066.50 2185.42 C 1156.22 2127.12 1255.03 2083.07 1357.94 2053.92 Z" />
</g>
</svg>
